<svg width="50" height="50" viewBox="0 0 50 50" fill="none" xmlns="http://www.w3.org/2000/svg">
<mask id="mask0_1_11055" style="mask-type:alpha" maskUnits="userSpaceOnUse" x="0" y="0" width="50" height="50">
<rect width="50" height="50" fill="#D9D9D9"/>
</mask>
<g mask="url(#mask0_1_11055)">
<path d="M39.5781 17.292C39.4045 17.292 39.2226 17.2399 39.0323 17.1357C38.8406 17.0316 38.7101 16.8753 38.6406 16.667L36.974 13.0212L33.3281 11.3545C33.1198 11.285 32.9635 11.1545 32.8594 10.9628C32.7552 10.7725 32.7031 10.5906 32.7031 10.417C32.7031 10.2434 32.7552 10.0607 32.8594 9.86908C32.9635 9.6788 33.1198 9.54894 33.3281 9.47949L36.974 7.81283L38.6406 4.16699C38.7101 3.95866 38.8406 3.80241 39.0323 3.69824C39.2226 3.59408 39.4045 3.54199 39.5781 3.54199C39.7517 3.54199 39.9344 3.59408 40.126 3.69824C40.3163 3.80241 40.4462 3.95866 40.5156 4.16699L42.1823 7.81283L45.8281 9.47949C46.0365 9.54894 46.1927 9.6788 46.2969 9.86908C46.401 10.0607 46.4531 10.2434 46.4531 10.417C46.4531 10.5906 46.401 10.7725 46.2969 10.9628C46.1927 11.1545 46.0365 11.285 45.8281 11.3545L42.1823 13.0212L40.5156 16.667C40.4462 16.8753 40.3163 17.0316 40.126 17.1357C39.9344 17.2399 39.7517 17.292 39.5781 17.292ZM39.5781 46.4587C39.4045 46.4587 39.2226 46.4066 39.0323 46.3024C38.8406 46.1982 38.7101 46.042 38.6406 45.8337L36.974 42.1878L33.3281 40.5212C33.1198 40.4517 32.9635 40.3212 32.8594 40.1295C32.7552 39.9392 32.7031 39.7573 32.7031 39.5837C32.7031 39.41 32.7552 39.2281 32.8594 39.0378C32.9635 38.8462 33.1198 38.7156 33.3281 38.6462L36.974 36.9795L38.6406 33.3337C38.7101 33.1253 38.8406 32.9691 39.0323 32.8649C39.2226 32.7607 39.4045 32.7087 39.5781 32.7087C39.7517 32.7087 39.9344 32.7607 40.126 32.8649C40.3163 32.9691 40.4462 33.1253 40.5156 33.3337L42.1823 36.9795L45.8281 38.6462C46.0365 38.7156 46.1927 38.8462 46.2969 39.0378C46.401 39.2281 46.4531 39.41 46.4531 39.5837C46.4531 39.7573 46.401 39.9392 46.2969 40.1295C46.1927 40.3212 46.0365 40.4517 45.8281 40.5212L42.1823 42.1878L40.5156 45.8337C40.4462 46.042 40.3163 46.1982 40.126 46.3024C39.9344 46.4066 39.7517 46.4587 39.5781 46.4587ZM18.7448 38.6982C18.3628 38.6982 17.9983 38.5941 17.651 38.3857C17.3038 38.1774 17.0434 37.8823 16.8698 37.5003L13.5365 30.2087L6.24479 26.8753C5.86285 26.7017 5.56771 26.4413 5.35938 26.0941C5.15104 25.7469 5.04688 25.3823 5.04688 25.0003C5.04688 24.6184 5.15104 24.2538 5.35938 23.9066C5.56771 23.5594 5.86285 23.2989 6.24479 23.1253L13.5365 19.792L16.8698 12.5003C17.0434 12.1184 17.3038 11.8232 17.651 11.6149C17.9983 11.4066 18.3628 11.3024 18.7448 11.3024C19.1267 11.3024 19.4913 11.4066 19.8385 11.6149C20.1858 11.8232 20.4462 12.1184 20.6198 12.5003L23.9531 19.792L31.2448 23.1253C31.6267 23.2989 31.9219 23.5594 32.1302 23.9066C32.3385 24.2538 32.4427 24.6184 32.4427 25.0003C32.4427 25.3823 32.3385 25.7469 32.1302 26.0941C31.9219 26.4413 31.6267 26.7017 31.2448 26.8753L23.9531 30.2087L20.6198 37.5003C20.4462 37.8823 20.1858 38.1774 19.8385 38.3857C19.4913 38.5941 19.1267 38.6982 18.7448 38.6982Z" fill="#D9D9D9"/>
</g>
</svg>
